<svg xmlns="http://www.w3.org/2000/svg" viewBox="0 0 273.57 71.4"><defs><style>.cls-1{fill:#666;}.cls-2{fill:none;stroke:#ccc;stroke-miterlimit:10;stroke-width:2px;}.cls-3{fill:#040000;}</style></defs><g><g><path class="cls-1" d="M32.41,5.7C33,15.11,37,55.15,64.2,68.84a10.25,10.25,0,0,0-1.61,1.9C41,59.51,34,32.05,31.64,15.91c-1.89,16.93-8,42.88-30.17,54.75A10.82,10.82,0,0,0,0,69C29.05,53.65,30,13.69,30.45,3.09h2.1Z"/><path class="cls-1" d="M161.56,37.9,153,41.15V67.58c0,2.14-.56,3-1.89,3.4s-3.64.48-8,.4a16.21,16.21,0,0,0-.84-2.22c3.64.08,6.58.08,7.42,0s1.33-.32,1.33-1.5V41.94l-11.06,4.27-.7-2.29c3.15-1.11,7.28-2.69,11.76-4.35V19.39H140.21V17H151V.16h2V17h8.26v2.38H153V38.77l8.26-3.08Zm42,29.2H170v4.2h-2.1V21.05a67.09,67.09,0,0,1-7.28,11.24c-.42-.32-1.26-1.11-1.82-1.51C165.27,23.42,170.45,12.11,173.6,0l2.1.55a97.16,97.16,0,0,1-5.25,15h13.86A128.46,128.46,0,0,0,189.85.32l2.1,1c-1.61,4.51-3.71,10.13-5.6,14.32h16.17v2.29H186.63V31.81H201v2.3H186.63v14H201v2.38H186.63V64.73h16.94Zm-19-49.22H170V31.81h14.56Zm0,16.23H170v14h14.56ZM170,64.73h14.56V50.49H170Z"/><path class="cls-1" d="M234.36,45.58a138.07,138.07,0,0,0-8.61-11V71.14h-2.1V29.67c-3.29,9.66-8.33,20-12.74,25.64a7.13,7.13,0,0,0-1.47-1.82c5-6,10.85-18.2,13.86-28.72H210.84v-2.3h12.81V7.28c-4,1-8.19,1.9-12,2.53a14.58,14.58,0,0,0-.77-1.9c8-1.5,17.78-3.72,22.68-6.33l1.75,1.82a56.67,56.67,0,0,1-9.52,3.33V22.47H235.9v2.3H225.75v7.36c2.17,2.21,8.61,9.57,10.08,11.55Zm39.21-7.91c-6.23,19.54-22.41,29.43-38.44,33.55a10.4,10.4,0,0,0-1.19-2.06,57.42,57.42,0,0,0,24-11.63,73.15,73.15,0,0,0-13-11.16,64.59,64.59,0,0,1-8.82,5.78,7.87,7.87,0,0,0-1.54-1.66c11.06-5.78,19-14.41,22.69-21.61l2.52.48A59.24,59.24,0,0,1,254.6,37h17.22l.42-.15Zm-4.06-30c-5.53,16.53-19.4,26-32.77,30.38A6,6,0,0,0,235.55,36a52.41,52.41,0,0,0,19.68-10.68,64.79,64.79,0,0,0-11.42-10.13,60,60,0,0,1-7.14,5.38A6.72,6.72,0,0,0,235.06,19,51.2,51.2,0,0,0,253.27.08l2.3.47A49.61,49.61,0,0,1,251.44,7h16.25l.49-.15ZM249.62,9.26c-1.33,1.5-2.73,3.08-4.27,4.51a62,62,0,0,1,11.49,10.05,40,40,0,0,0,9.8-14.56Zm2.87,30.07a55,55,0,0,1-5.88,5.7,68.77,68.77,0,0,1,13,11A42.46,42.46,0,0,0,270.7,39.33Z"/><line class="cls-2" x1="123.9" y1="64.73" x2="73.45" y2="64.8"/><line class="cls-2" x1="123.84" y1="15.99" x2="73.39" y2="16.05"/><line class="cls-2" x1="123.01" y1="65.84" x2="123.01" y2="15.39"/><line class="cls-2" x1="74.04" y1="65.84" x2="74.04" y2="15.39"/><path class="cls-3" d="M98.29,56.62C97.94,52,95.5,33.17,78.41,26.55A6.89,6.89,0,0,0,80.05,25c12.56,5.05,17.31,16.52,19.13,24.4,1.56-8.07,5.91-18.89,18.56-24.4a7.43,7.43,0,0,0,1.64,1.41c-18.24,7.62-18.6,26.48-18.91,31.56H98.21Z"/></g></g></svg>